<svg xmlns="http://www.w3.org/2000/svg" viewBox="0 0 992.54 826.77"><defs><style>.cls-1{fill:#f7f7f7;}</style></defs><g id="Capa_6" data-name="Capa 6"><circle class="cls-1" cx="793.21" cy="576.69" r="34.95" transform="translate(145.13 1227.91) rotate(-88.09)"/><path class="cls-1" d="M1037.85,784.88V601.57L1008.12,628a156.65,156.65,0,0,1-39.53,25.65c.58,62.66.8,135.25-1.47,209.23A78.49,78.49,0,0,0,1037.85,784.88Z" transform="translate(-45.32 -122.36)"/><path class="cls-1" d="M1037.85,200.74a78.47,78.47,0,0,0-78.38-78.38H123.7a78.47,78.47,0,0,0-78.38,78.38v13.63h0V715.61c.18,56.4.49,112.83,1,169,3.07,14.16,10.26,33.21,27.05,45.06l.49.35.42.42a11.59,11.59,0,0,1,2.07,2.84c10.35,6.55,18.58,11.11,28,11.11h.21c199.87,6,403.16,5,599.75,4,31.45-.5,63.49-.75,94.48-1,30.73-.24,62.5-.49,93.75-1,31.38-6.91,55.33-31.2,59.84-60.67,3-79.58,2.9-158.65,2.3-226.55a156.75,156.75,0,0,1-50.57,8.39H793.21a90.87,90.87,0,0,1,0-181.74H904.09a142.53,142.53,0,0,0,49.86-9c-.18-25.33.08-51.1.34-76.06.45-42.94.91-87.33-.92-130.57-6.9-34.33-35.12-61.1-67.35-63.84-85.95-.36-173.36-.07-257.89.2-152.35.5-309.88,1-464.88-2.2-13.1,0-25.62-4.17-37.31-8.42l-.15-.05c-18.28-7.11-35.26-18.43-50.47-33.64a7,7,0,1,1,9.89-9.88c13.81,13.8,29.14,24,45.58,30.46,10.52,3.82,21.7,7.55,32.54,7.55h.14c154.84,3.22,312.32,2.7,464.62,2.21,84.64-.28,172.17-.57,258.27-.21l.53,0c38.61,3.13,72.38,34.94,80.3,75.64l.1.51,0,.52c1.88,43.77,1.41,88.55,1,131.84-.24,22.94-.49,46.56-.38,69.85a142.87,142.87,0,0,0,30.94-20.95l39-34.69Z" transform="translate(-45.32 -122.36)"/><path class="cls-1" d="M1037.85,433.82l-29.73,26.44a156.46,156.46,0,0,1-104,39.54H793.21a76.89,76.89,0,0,0,0,153.78H904.09a142.45,142.45,0,0,0,94.74-36l39-34.69ZM793.21,625.62a48.93,48.93,0,1,1,48.93-48.93A49,49,0,0,1,793.21,625.62Z" transform="translate(-45.32 -122.36)"/></g></svg>